<!--?xml version="1.0" encoding="UTF-8"?-->
<svg xmlns="http://www.w3.org/2000/svg" viewBox="0 0 32 32" fill="#FFFFFF">
  <path d="M4 29.987h24c.828 0 1.5-.672 1.5-1.5 0-.827-.672-1.5-1.5-1.5H4c-.828 0-1.5.673-1.5 1.5 0 .828.672 1.5 1.5 1.5Z"></path>
  <path d="M9.138 22.244c1.323.328 2.775.118 3.995-.702l9.873-6.712c.458-.308.58-.929.273-1.388l-6.717-10c-.308-.458-.929-.58-1.388-.272L5.213 9.861c-2.293 1.539-2.903 4.646-1.363 6.938l2.256 3.359c.738 1.099 1.836 1.812 3.032 2.086Zm11.448-9.223H5.168c.207-.591.599-1.124 1.16-1.5l9.131-6.133 5.127 7.633Z"></path>
  <path d="M26.339 15.455c-.185-.284-.5-.455-.839-.455-.339 0-.654.171-.839.455 0 0-1.274 1.965-2.039 3.732-.379.876-.622 1.717-.622 2.313 0 1.932 1.568 3.5 3.5 3.5 1.932 0 3.5-1.568 3.5-3.5 0-.596-.243-1.437-.622-2.313-.765-1.767-2.039-3.732-2.039-3.732Z"></path>
</svg>